HIERARCHY
ROOT Hips
{
	OFFSET	0.0082	2.8844	-0.0056
	CHANNELS 6 Xposition Yposition Zposition Zrotation Xrotation Yrotation
	JOINT Spine0
	{
		OFFSET	0.0000	0.2768	0.0473
		CHANNELS 3 Zrotation Xrotation Yrotation
		JOINT Spine1
		{
			OFFSET	0.0000	0.4876	-0.0050
			CHANNELS 3 Zrotation Xrotation Yrotation
			JOINT Neck
			{
				OFFSET	0.0000	0.4163	-0.1306
				CHANNELS 3 Zrotation Xrotation Yrotation
				JOINT Head
				{
					OFFSET	0.0000	0.1302	0.0278
					CHANNELS 3 Zrotation Xrotation Yrotation
					End Site 
					{
						OFFSET	0.0000	0.7443	0.0037
					}
				}
			}
			JOINT LeftShoulder
			{  
				OFFSET	0.1842	0.3056	-0.1138
				CHANNELS 3 Zrotation Xrotation Yrotation
				JOINT LeftUpArm
				{
					OFFSET	0.3697	-0.0334	-0.0538
					CHANNELS 3 Zrotation Xrotation Yrotation
					JOINT LeftLowArm
					{
						OFFSET	0.8306	0.0000	0.0000
						CHANNELS 3 Zrotation Xrotation Yrotation
						JOINT LeftHand
						{
							OFFSET	0.8362	0.0000	0.0000
							CHANNELS 3 Zrotation Xrotation Yrotation
							JOINT LeftFinger
							{
								OFFSET	0.3140	0.0147	0.0814
								CHANNELS 3 Zrotation Xrotation Yrotation
								End Site 
								{
									OFFSET	0.1613	0.0000	0.0000
								}
							}
						}
					}
				}
			}
			JOINT RightShoulder
			{  
				OFFSET	-0.1843	0.3056	-0.1138
				CHANNELS 3 Zrotation Xrotation Yrotation
				JOINT RightUpArm
				{
					OFFSET	-0.3696	-0.0334	-0.0538
					CHANNELS 3 Zrotation Xrotation Yrotation
					JOINT RightLowArm
					{
						OFFSET	-0.8306	0.0000	0.0000
						CHANNELS 3 Zrotation Xrotation Yrotation
						JOINT RightHand
						{
							OFFSET	-0.8362	0.0000	0.0000
							CHANNELS 3 Zrotation Xrotation Yrotation
							JOINT RightFinger
							{
								OFFSET	-0.3118	0.0184	0.0812
								CHANNELS 3 Zrotation Xrotation Yrotation
								End Site 
								{
									OFFSET	-0.1665	0.0000	0.0000
								}
							}
						}
					}
				}
			}
		}
	}
	JOINT LeftUpLeg
	{
		OFFSET	0.2890	-0.0982	0.0000
		CHANNELS 3 Zrotation Xrotation Yrotation
		JOINT LeftLowLeg
		{
			OFFSET	0.0000	-1.2519	-0.0519
			CHANNELS 3 Zrotation Xrotation Yrotation
			JOINT LeftFoot
			{
				OFFSET	-0.0004	-1.1757	-0.0254
				CHANNELS 3 Zrotation Xrotation Yrotation
				JOINT LeftToe
				{
					OFFSET	0.0055	-0.3658	0.2485
					CHANNELS 3 Zrotation Xrotation Yrotation
					End Site 
					{
						OFFSET	-0.0001	0.0000	0.3810
					}
				}
			}
		}
	}

	JOINT RightUpLeg
	{
		OFFSET	-0.2890	-0.0982	0.0000
		CHANNELS 3 Zrotation Xrotation Yrotation
		JOINT RightLowLeg
		{
			OFFSET	0.0000	-1.2519	-0.0519
			CHANNELS 3 Zrotation Xrotation Yrotation
			JOINT RightFoot
			{
				OFFSET	-0.0004	-1.1757	-0.0254
				CHANNELS 3 Zrotation Xrotation Yrotation
				JOINT RightToe
				{
					OFFSET	0.0055	-0.3658	0.2485
					CHANNELS 3 Zrotation Xrotation Yrotation
					End Site 
					{
						OFFSET	0.0000	0.0000	0.3810
					}
				}
			}
		}
	}
}

MOTION
Frames:	11
Frame Time:	0.01667
-0.0078 2.8844 -0.0051 -352.2242 -9.4607 -148.4199 0.0000 0.0000 0.0000 -2.2577 -348.2003 -357.9166 0.0000 0.0000 0.0000 -354.2895 -23.3229 -351.9934 0.0000 0.0000 0.0000 -5.5993 -339.4041 -69.4925 -306.8256 -16.3071 -35.6694 -4.3522 -0.2015 -335.3479 0.0000 0.0000 0.0000 0.0000 0.0000 0.0000 -341.5507 -333.3849 -314.3097 -57.7864 -16.6594 -21.3647 -345.5036 -24.1576 -283.5647 0.0000 0.0000 0.0000 -218.8176 -71.1166 -221.8097 -125.5681 -285.5706 -231.5522 -3.5571 -9.4478 -23.9893 0.0000 0.0000 0.0000 -114.1478 -65.5574 -115.9130 -186.3453 -280.6419 -157.6632 -357.0380 -8.5939 -11.7576 0.0000 0.0000 0.0000
-0.0078 2.8844 -0.0051 -352.2202 -9.4521 -148.4252 0.0000 0.0000 0.0000 -2.2335 -348.1911 -357.9385 0.0000 0.0000 0.0000 -354.3070 -23.2989 -351.9762 0.0000 0.0000 0.0000 -5.6258 -339.4101 -69.4668 -306.8256 -16.3071 -35.6694 -4.3522 -0.2015 -335.3480 0.0000 0.0000 0.0000 0.0000 0.0000 0.0000 -341.5803 -333.3806 -314.2824 -57.7864 -16.6594 -21.3647 -345.5036 -24.1576 -283.5647 0.0000 0.0000 0.0000 -218.8003 -71.1193 -221.7924 -125.5969 -285.5648 -231.5125 -3.5571 -9.4478 -23.9893 0.0000 0.0000 0.0000 -114.1347 -65.5649 -115.9073 -186.3453 -280.6419 -157.6632 -357.0380 -8.5939 -11.7576 0.0000 0.0000 0.0000
-0.0077 2.8845 -0.0051 -352.2214 -9.4464 -148.4657 0.0000 0.0000 0.0000 -2.1898 -348.1625 -358.0131 0.0000 0.0000 0.0000 -354.3311 -23.2516 -351.8724 0.0000 0.0000 0.0000 -5.6525 -339.4442 -69.4156 -306.8032 -16.2444 -35.6275 -4.3484 -0.2388 -335.3789 0.0000 0.0000 0.0000 0.0000 0.0000 0.0000 -341.7726 -333.7275 -313.9876 -57.3624 -16.3702 -21.1661 -346.1095 -24.9751 -283.8098 0.0000 0.0000 0.0000 -218.9272 -71.1073 -221.8958 -125.6118 -285.5087 -231.5233 -3.5564 -9.4290 -23.9581 0.0000 0.0000 0.0000 -114.1438 -65.5989 -115.8887 -186.5780 -280.6473 -157.4314 -357.0195 -8.5936 -11.7649 0.0000 0.0000 0.0000
-0.0077 2.8845 -0.0051 -352.2214 -9.4464 -148.4657 0.0000 0.0000 0.0000 -2.1898 -348.1625 -358.0131 0.0000 0.0000 0.0000 -354.3311 -23.2516 -351.8724 0.0000 0.0000 0.0000 -5.6525 -339.4442 -69.4156 -306.8032 -16.2444 -35.6275 -4.3484 -0.2388 -335.3789 0.0000 0.0000 0.0000 0.0000 0.0000 0.0000 -341.7726 -333.7275 -313.9876 -57.3624 -16.3702 -21.1661 -346.1095 -24.9751 -283.8098 0.0000 0.0000 0.0000 -218.9272 -71.1073 -221.8958 -125.6427 -285.5226 -231.4924 -3.5511 -9.4439 -23.9602 0.0000 0.0000 0.0000 -114.1438 -65.5989 -115.8887 -186.5780 -280.6473 -157.4314 -357.0195 -8.5936 -11.7649 0.0000 0.0000 0.0000
-0.0078 2.8844 -0.0055 -352.1789 -9.4277 -148.4930 0.0000 0.0000 0.0000 -2.0880 -348.1746 -358.0929 0.0000 0.0000 0.0000 -354.3172 -23.2041 -351.8139 0.0000 0.0000 0.0000 -5.7007 -339.4083 -69.3385 -306.7814 -16.1789 -35.6036 -4.3441 -0.2977 -335.4327 0.0000 0.0000 0.0000 0.0000 0.0000 0.0000 -342.0433 -333.9799 -313.5474 -56.9778 -15.8503 -21.0995 -346.6275 -25.3149 -284.1711 0.0000 0.0000 0.0000 -218.8786 -71.0925 -221.8883 -125.6839 -285.4945 -231.4258 -3.5558 -9.4394 -23.9496 0.0000 0.0000 0.0000 -114.0847 -65.5851 -115.8747 -186.7213 -280.6437 -157.2509 -356.9962 -8.5828 -11.7742 0.0000 0.0000 0.0000
-0.0078 2.8844 -0.0055 -352.1789 -9.4277 -148.4930 0.0000 0.0000 0.0000 -2.0880 -348.1746 -358.0929 0.0000 0.0000 0.0000 -354.3172 -23.2041 -351.8139 0.0000 0.0000 0.0000 -5.7007 -339.4083 -69.3385 -306.7686 -16.1437 -35.6135 -4.3335 -0.3344 -335.4220 0.0000 0.0000 0.0000 0.0000 0.0000 0.0000 -342.0433 -333.9799 -313.5474 -56.9778 -15.8503 -21.0995 -346.6275 -25.3149 -284.1711 0.0000 0.0000 0.0000 -218.8786 -71.0925 -221.8883 -125.6839 -285.4945 -231.4258 -3.5558 -9.4394 -23.9496 0.0000 0.0000 0.0000 -114.0847 -65.5851 -115.8747 -186.7213 -280.6437 -157.2509 -356.9962 -8.5828 -11.7742 0.0000 0.0000 0.0000
-0.0082 2.8840 -0.0055 -352.1842 -9.4272 -148.5421 0.0000 0.0000 0.0000 -2.0829 -348.1639 -358.1074 0.0000 0.0000 0.0000 -354.3147 -23.1806 -351.7906 0.0000 0.0000 0.0000 -5.7140 -339.4331 -69.2913 -306.7457 -16.0858 -35.6140 -4.4235 -0.3489 -335.5368 0.0000 0.0000 0.0000 0.0000 0.0000 0.0000 -342.3055 -334.2639 -312.9909 -56.5629 -15.2778 -21.0930 -346.4897 -25.0004 -284.5326 0.0000 0.0000 0.0000 -218.9689 -71.0929 -221.9619 -125.7221 -285.4855 -231.3363 -3.5234 -9.4844 -23.9884 0.0000 0.0000 0.0000 -114.1112 -65.5847 -115.8745 -187.0731 -280.6662 -156.8809 -357.0385 -8.5431 -11.7272 0.0000 0.0000 0.0000
-0.0082 2.8840 -0.0055 -352.1842 -9.4272 -148.5421 0.0000 0.0000 0.0000 -2.0829 -348.1639 -358.1074 0.0000 0.0000 0.0000 -354.3147 -23.1806 -351.7906 0.0000 0.0000 0.0000 -5.7140 -339.4331 -69.2913 -306.7457 -16.0858 -35.6140 -4.4235 -0.3489 -335.5368 0.0000 0.0000 0.0000 0.0000 0.0000 0.0000 -342.3055 -334.2639 -312.9909 -56.5629 -15.2778 -21.0930 -346.4897 -25.0004 -284.5326 0.0000 0.0000 0.0000 -218.9689 -71.0929 -221.9619 -125.7221 -285.4855 -231.3363 -3.5234 -9.4844 -23.9884 0.0000 0.0000 0.0000 -114.1112 -65.5847 -115.8745 -187.0731 -280.6662 -156.8809 -357.0385 -8.5431 -11.7272 0.0000 0.0000 0.0000
-0.0087 2.8838 -0.0057 -352.2166 -9.4242 -148.6310 0.0000 0.0000 0.0000 -2.1176 -348.1971 -358.0790 0.0000 0.0000 0.0000 -354.2481 -23.1433 -351.7628 0.0000 0.0000 0.0000 -5.7885 -339.4041 -69.2363 -306.7218 -16.0407 -35.6672 -4.4697 -0.4025 -335.5522 0.0000 0.0000 0.0000 0.0000 0.0000 0.0000 -342.5941 -334.3391 -312.5941 -56.2788 -14.8989 -21.1651 -346.9449 -25.5216 -284.7826 0.0000 0.0000 0.0000 -219.0743 -71.0926 -222.0333 -125.8533 -285.4008 -231.1857 -3.5513 -9.4953 -23.9575 0.0000 0.0000 0.0000 -114.1440 -65.6274 -115.8687 -187.1440 -280.6829 -156.7580 -356.9976 -8.5507 -11.7431 0.0000 0.0000 0.0000
-0.0087 2.8838 -0.0057 -352.2166 -9.4242 -148.6310 0.0000 0.0000 0.0000 -2.1176 -348.1971 -358.0790 0.0000 0.0000 0.0000 -354.2481 -23.1433 -351.7628 0.0000 0.0000 0.0000 -5.7885 -339.4041 -69.2363 -306.7218 -16.0407 -35.6672 -4.4697 -0.4025 -335.5522 0.0000 0.0000 0.0000 0.0000 0.0000 0.0000 -342.5941 -334.3391 -312.5941 -56.2788 -14.8989 -21.1651 -346.9449 -25.5216 -284.7826 0.0000 0.0000 0.0000 -219.0743 -71.0926 -222.0333 -125.8533 -285.4008 -231.1857 -3.5411 -9.4904 -23.9580 0.0000 0.0000 0.0000 -114.1440 -65.6274 -115.8687 -187.1440 -280.6829 -156.7580 -356.9976 -8.5507 -11.7431 0.0000 0.0000 0.0000
-0.0087 2.8838 -0.0065 -352.1700 -9.3971 -148.6635 0.0000 0.0000 0.0000 -2.1167 -348.2284 -358.1018 0.0000 0.0000 0.0000 -354.1192 -23.1616 -351.6785 0.0000 0.0000 0.0000 -5.7559 -339.4344 -69.1760 -306.7704 -16.0732 -35.6504 -4.4481 -0.5087 -335.5529 0.0000 0.0000 0.0000 0.0000 0.0000 0.0000 -342.9214 -334.4750 -312.1362 -55.8575 -14.4474 -21.1353 -347.5744 -25.9860 -285.1284 0.0000 0.0000 0.0000 -218.8809 -71.0961 -221.9152 -125.9417 -285.3434 -231.0628 -3.5976 -9.4577 -23.9052 0.0000 0.0000 0.0000 -114.0673 -65.6321 -115.8363 -187.7051 -280.6988 -156.2215 -357.0399 -8.5058 -11.6962 0.0000 0.0000 0.0000
